<svg xmlns="http://www.w3.org/2000/svg" width="9.784" height="9.784" viewBox="0 0 9.784 9.784">
  <g id="Age" transform="translate(-1 -1)">
    <path id="Path_7" data-name="Path 7" d="M9.394,1.889H8.56V1.445a.445.445,0,0,0-.889,0v.445H6.337V1.445a.445.445,0,0,0-.889,0v.445H4.113V1.445a.445.445,0,0,0-.889,0v.445H2.39A1.392,1.392,0,0,0,1,3.279V4.558h9.784V3.279A1.392,1.392,0,0,0,9.394,1.889Z" fill="#9a9a9a"/>
    <path id="Path_8" data-name="Path 8" d="M1,14.947a1.392,1.392,0,0,0,1.39,1.39h7a1.392,1.392,0,0,0,1.39-1.39V11H1ZM4.243,13.16a.445.445,0,0,1,.629,0l.575.575,1.465-1.464a.445.445,0,1,1,.629.629L5.762,14.678a.445.445,0,0,1-.629,0l-.889-.889A.445.445,0,0,1,4.243,13.16Z" transform="translate(0 -5.553)" fill="#9a9a9a"/>
  </g>
</svg>
